<?xml version="1.0" encoding="UTF-8"?>
<svg id="Layer_1" data-name="Layer 1" xmlns="http://www.w3.org/2000/svg" xmlns:xlink="http://www.w3.org/1999/xlink" viewBox="0 0 234 417">
  <defs>
    <style>
      .cls-1, .cls-2 {
        fill: none;
      }

      .cls-3 {
        clip-path: url(#clippath);
      }

      .cls-4 {
        fill: #ea1d2a;
      }

      .cls-5 {
        fill: #fff;
      }

      .cls-6 {
        fill: #154a94;
      }

      .cls-7 {
        fill: #e6e7e8;
      }

      .cls-7, .cls-8, .cls-2 {
        stroke: #231f20;
        stroke-miterlimit: 10;
        stroke-width: 4px;
      }

      .cls-8 {
        fill: #ccd0d5;
      }

      .cls-9 {
        clip-path: url(#clippath-1);
      }
    </style>
    <clipPath id="clippath">
      <rect class="cls-1" x="42" y="82.21" width="150" height="150.03"/>
    </clipPath>
    <clipPath id="clippath-1">
      <rect class="cls-1" x="114.99" y="263.06" width="25.98" height="34.25"/>
    </clipPath>
  </defs>
  <polygon class="cls-8" points="2 42 12 12 222 12 232 42 232 42 232 392 2 392 2 42 2 42"/>
  <rect class="cls-7" x="7" y="2" width="220" height="10"/>
  <polygon class="cls-7" points="222 407 12 407 2 394 2 392 232 392 232 395 222 407"/>
  <rect class="cls-2" x="12" y="407" width="210" height="8"/>
  <rect id="half_can_clip_mask" data-name="half can clip mask" class="cls-1" x=".08" y="208.5" width="233.84" height="206.5"/>
  <g id="surface1">
    <g class="cls-3">
      <g id="g57">
        <path id="path55" class="cls-5" d="M169.39,210.88c-29.64,28.94-77.13,28.36-106.06-1.28-28.94-29.64-28.37-77.13,1.28-106.06,29.64-28.94,77.12-28.36,106.05,1.28,28.94,29.64,28.36,77.12-1.27,106.06"/>
      </g>
    </g>
    <path id="path59" class="cls-6" d="M176.6,119.59c1.37,4.63,2.09,9.53,2.03,14.6-.2,16.36-8.43,30.67-20.77,39.53-21.47,15.41-52.49,15.06-95.49,28.05,12.74,15.61,32.05,25.67,53.78,25.94,38.94,.47,70.88-30.71,71.35-69.64,.17-14.14-3.85-27.34-10.89-38.47"/>
    <path id="path61" class="cls-4" d="M159.96,101.3c-11.68-8.99-26.25-14.4-42.11-14.59-38.93-.47-70.88,30.71-71.35,69.65-.19,15.67,4.75,30.2,13.26,42.01,47.57-13.23,85.47-49.97,100.2-97.07"/>
    <path id="path63" class="cls-6" d="M64.29,255.86c-2.26-.03-4.01-1.91-3.98-4.28,.03-2.38,1.82-4.21,4.08-4.19,2.23,.03,4.02,1.91,3.99,4.28-.03,2.38-1.86,4.21-4.09,4.19m-.11-10.56c-3.42-.04-6.11,2.73-6.15,6.25-.04,3.59,2.69,6.36,6.21,6.4,2.87,.03,5.31-1.82,6.08-4.62,.13-.48,.28-1.7,.3-2.91l.11-8.82c0-.17-.13-.29-.28-.29l-1.59-.02c-.16,0-.3,.12-.3,.28l-.07,5.54c-.26-.35-1.69-1.78-4.3-1.81"/>
    <path id="path65" class="cls-6" d="M87.78,250.88c-.32,.1-.76,.18-1.31,.25-.26,.03-.55,.04-.88,.04-.56,0-1.17-.06-1.77-.11h-.02c-.55-.05-1.07-.1-1.57-.1-.36,0-.68,.01-.99,.05-.94,.11-1.67,.39-1.67,.39v-.07c.21-1.87,1.8-3.45,3.7-3.67,.18-.02,.36-.03,.53-.03,1.79,.02,3.51,1.39,4,3.21v.05s-.03,0-.03,0Zm2.17,.82v-.02c0-.12-.02-.32-.05-.52-.05-.38-.12-.75-.23-1.12-.83-2.73-3.13-4.52-5.84-4.56-.27,0-.55,.01-.83,.05-3.49,.41-5.89,3.53-5.47,7.12,.38,3.25,2.96,5.51,6.13,5.54,.27,0,.55-.01,.83-.05,1.7-.19,3.19-.89,4.32-2.24,.07-.08,.1-.18,.09-.27,0-.07-.06-.16-.14-.22-.19-.14-.85-.47-1.21-.65-.11-.05-.19-.09-.24-.12-.11-.05-.19-.08-.26-.08-.09,0-.17,.05-.25,.14-.73,.82-1.64,1.26-2.58,1.36-.19,.02-.36,.03-.53,.03-1.69-.02-3.39-1.17-3.86-2.73l-.02-.04,.04-.02c.09-.04,.88-.4,2.06-.39,.15,0,.29,0,.44,.03,.34,.03,.68,.08,1.03,.12,.66,.1,1.34,.19,2.14,.2,.49,0,.97-.02,1.46-.08,1.94-.35,2.71-.88,2.72-.89,.28-.17,.27-.32,.25-.58"/>
    <path id="path67" class="cls-6" d="M75.48,246.09c0-.16-.13-.3-.29-.3l-1.6-.02c-.16,0-.3,.13-.3,.29l-.14,11.4c0,.16,.13,.3,.29,.3l1.6,.02c.16,0,.3-.13,.3-.29l.14-11.4Z"/>
    <path id="path69" class="cls-6" d="M74.44,241.72c-.8,0-1.46,.63-1.47,1.43,0,.8,.63,1.46,1.43,1.46,.8,0,1.46-.63,1.46-1.43,0-.8-.63-1.46-1.43-1.47"/>
    <path id="path71" class="cls-6" d="M107.32,273.73c-.65,.21-1.54,.37-2.65,.5-.53,.06-1.11,.09-1.8,.08-1.15-.01-2.4-.12-3.6-.23h-.04c-1.12-.1-2.17-.19-3.19-.2-.73,0-1.39,.03-2.03,.1-1.9,.21-3.4,.79-3.4,.79v-.15c.43-3.79,3.66-7.01,7.53-7.47,.36-.04,.73-.06,1.09-.06,3.64,.04,7.14,2.85,8.15,6.53l.02,.1-.09,.02Zm4.43,1.67v-.05c-.02-.25-.06-.64-.1-1.06-.1-.77-.25-1.53-.48-2.27-1.69-5.57-6.35-9.2-11.88-9.27-.55,0-1.12,.02-1.68,.09-7.09,.82-11.99,7.19-11.14,14.49,.78,6.61,6.02,11.19,12.48,11.27,.54,0,1.12-.02,1.69-.08,3.45-.4,6.49-1.8,8.79-4.58,.13-.16,.2-.36,.18-.55-.02-.16-.11-.32-.28-.44-.38-.28-1.72-.95-2.46-1.31-.21-.11-.39-.2-.48-.25-.22-.11-.38-.17-.53-.17-.18,0-.35,.09-.52,.29-1.48,1.68-3.34,2.56-5.23,2.77-.37,.04-.74,.06-1.1,.06-3.44-.04-6.89-2.39-7.85-5.56l-.03-.08,.08-.04c.18-.09,1.8-.82,4.19-.79,.3,0,.6,.02,.89,.05,.68,.06,1.37,.16,2.09,.26,1.34,.2,2.73,.4,4.35,.42,1,.01,1.98-.05,2.98-.18,3.95-.71,5.52-1.8,5.54-1.81,.56-.35,.54-.65,.51-1.19"/>
    <path id="path73" class="cls-6" d="M173.61,265.09c0-.33-.27-.6-.59-.61l-3.26-.04c-.33,0-.59,.26-.59,.59l-.28,23.19c0,.33,.25,.6,.58,.61l3.26,.04c.33,0,.6-.27,.61-.59l.28-23.19Z"/>
    <path id="path75" class="cls-6" d="M171.49,256.19c-1.62-.02-2.96,1.29-2.98,2.91-.02,1.62,1.29,2.95,2.91,2.97,1.62,.02,2.96-1.28,2.98-2.9,.02-1.62-1.28-2.96-2.91-2.98"/>
    <g class="cls-9">
      <g id="g79">
        <path id="path77" class="cls-6" d="M128.18,267.49c4.62,.06,8.2,3.9,8.14,8.76-.06,4.89-3.54,8.53-8.09,8.48-2.31-.03-4.43-.88-5.97-2.39-1.59-1.56-2.45-3.74-2.42-6.13,.06-4.85,3.8-8.76,8.35-8.71m-.4,21.45c.21,.01,.42,.02,.62,.02,3.35,.04,6.48-1.21,8.82-3.52,2.37-2.35,3.71-5.6,3.75-9.14,.09-7.32-5.48-13.13-12.69-13.22-5.86-.07-10.86,3.73-12.44,9.45-.27,.97-.57,3.45-.59,5.93l-.22,18.2c0,.34,.26,.6,.59,.61l3.24,.03c.33,0,.61-.26,.61-.59l.13-11.46,.17,.17c1.57,1.56,4.5,3.31,8,3.52"/>
      </g>
    </g>
    <path id="path81" class="cls-6" d="M70.06,266.79c4.62,.06,8.2,3.9,8.14,8.76-.06,4.89-3.54,8.53-8.1,8.48-2.31-.03-4.42-.88-5.96-2.39-1.59-1.56-2.45-3.74-2.43-6.14,.06-4.85,3.81-8.76,8.35-8.71m-.4,21.45c.21,.01,.42,.02,.62,.02,3.35,.04,6.48-1.21,8.82-3.52,2.37-2.35,3.71-5.6,3.75-9.14,.09-7.32-5.49-13.13-12.69-13.22-5.86-.07-10.86,3.73-12.44,9.45-.27,.97-.57,3.45-.6,5.93l-.22,18.2c0,.34,.27,.6,.59,.61l3.25,.03c.33,0,.61-.26,.61-.59l.13-11.46,.16,.17c1.57,1.56,4.5,3.31,8.01,3.52"/>
    <path id="path83" class="cls-6" d="M143.98,285.07c2.78,2.61,5.84,4.12,9.84,4.17h.12c6.89,.04,10.02-3.69,10.07-7.4,.06-5.13-4.77-6.6-6.25-6.92-.47-.1-.97-.2-1.47-.31-1.2-.25-2.44-.5-3.57-.83-.79-.22-3.37-1.12-3.34-3.05,.03-2.13,2.41-3.25,4.63-3.22,1.86,.02,3.41,.36,5.39,1.93,.15,.12,.37,.27,.63,.27,.2,0,.39-.06,.59-.21,.56-.4,1.58-1.24,2.25-1.9,.16-.15,.24-.33,.23-.52-.01-.28-.22-.51-.33-.6-2.63-2.15-5.18-3.04-8.8-3.09h-.02c-5.17-.06-9.11,3.21-9.16,7.61-.04,3.49,2.8,6.01,7.98,7.09l3.25,.66c2.13,.42,3.33,1.57,3.26,3.16-.06,1.55-1.98,3.14-5.1,3.1-2.55-.03-4.79-1.06-6.65-2.79l-.03-.03c-.13-.12-.29-.28-.5-.28-.15,0-.31,.07-.48,.2-.2,.16-2.39,1.85-2.63,2.09-.1,.11-.16,.23-.15,.36,0,.2,.13,.39,.25,.5"/>
    <path id="path85" class="cls-6" d="M97.86,256c-.04-.06-.1-.13-.24-.14-.13,0-.26,.06-.34,.09-.14,.06-.64,.31-1.36,.3-1.68-.02-2.15-1.22-2.14-2.55l.07-5.61,3.98,.05c.21,0,.38-.17,.38-.37l.02-1.31c0-.21-.16-.38-.37-.38l-3.98-.05,.03-2.66c0-.2-.16-.38-.4-.38l-1.37-.02c-.26,0-.4,.17-.4,.37l-.13,10.63c-.03,2.57,1.25,4.34,4.06,4.38,1.37,.02,2.51-.54,2.72-.64,.15-.07,.23-.15,.23-.3,0-.08-.04-.16-.08-.23-.1-.17-.66-1.17-.66-1.17"/>
  </g>
</svg>