<?xml version="1.0" encoding="UTF-8"?>
<svg id="Layer_1" data-name="Layer 1" xmlns="http://www.w3.org/2000/svg" xmlns:xlink="http://www.w3.org/1999/xlink" viewBox="0 0 237 420">
  <defs>
    <style>
      .cls-1, .cls-2, .cls-3 {
        fill: none;
      }

      .cls-2 {
        stroke: #d1d3d4;
        stroke-width: 3px;
      }

      .cls-2, .cls-4, .cls-5, .cls-3 {
        stroke-miterlimit: 10;
      }

      .cls-6 {
        clip-path: url(#clippath);
      }

      .cls-4 {
        fill: #e6e7e8;
      }

      .cls-4, .cls-5, .cls-3 {
        stroke: #231f20;
        stroke-width: 4px;
      }

      .cls-5 {
        fill: #ccd0d5;
      }

      .cls-7 {
        clip-path: url(#clippath-1);
      }

      .cls-8 {
        fill: #231f20;
      }

      .cls-8, .cls-9, .cls-10 {
        fill-rule: evenodd;
      }

      .cls-9 {
        fill: #db1f26;
      }

      .cls-10 {
        fill: #fff;
      }
    </style>
    <clipPath id="clippath">
      <rect id="half_can_clip_mask" data-name="half can clip mask" class="cls-1" x="1.56" y="210.94" width="233.84" height="206.5"/>
    </clipPath>
    <clipPath id="clippath-1">
      <rect class="cls-1" x="23.94" y="71.34" width="109.96" height="288.09"/>
    </clipPath>
  </defs>
  <g class="cls-6">
    <polygon class="cls-5" points="3.48 44.44 13.48 14.44 223.48 14.44 233.48 44.44 233.48 44.44 233.48 394.44 3.48 394.44 3.48 44.44 3.48 44.44"/>
    <g class="cls-7">
      <g>
        <path class="cls-8" d="M41.96,113.56c.88,.79,2.07,1.64,3.47,2.33,0,0-1.01-3.98-3.76-6.17-.63-.48-1.75-1.29-2.43-.75-.21,.16-.9,1.34,2.72,4.59Zm-12.81,26.51c.49,.35,1.09,.65,2.27,1.28,1.16,.6,4.61,1.81,6.99,2.8,4.12,1.72,7.81,4.27,10.44,7.41,2.2,2.62,3.12,3.97,3.88,6.08,0,0,.29-.8,.37-2.61,.31-6.98-2.81-12.87-7.48-16.2-4.33-3.08-10.17-5.28-15.47-1.75-4.98,3.33-6.98,17.92-.17,25.83,3.76,4.36,9.42,2.86,7.03-3.31-.48-1.08-1.31-2.09-2.06-2.46,1.31-3.57-1.45-7.8-1.45-7.8,0,0,6.75,3.01,7.74,10.35,.97,7.5-2.93,9.59-5.69,9.5-9.2-.73-14.56-18.81-9.88-29.61,3.85-8.82,10.61-10.71,16.01-8.9,7.94,2.68,11.33,9.45,12.73,15.9,1.49,6.93,.12,12.59-.34,14.46-.21,.8-.44,1.17-.44,1.17,0,0-1.71-2.46-4.57-4.84-2.43-1.99-5.37-4.06-7.88-5.53-5.83-3.4-10.44-7.9-12.02-11.77h0Zm.5-18.83c.82,1.46,2.37,2.13,3.5,1.46,1.18-.66,1.34-2.44,.57-3.81-.76-1.35-2.32-2.13-3.48-1.44-1.16,.67-1.38,2.34-.59,3.8Zm20.36,1.21c1.6,1.56,3.06,3.18,4.03,5.07,.67,1.54,1.35,3.46,.16,4.96-.67,.71-1.8,.76-2.71,.52-.96-.29-1.86-.78-2.74-1.26l-11.81-6.45-.11-.21c0-1.13-.01-4.57,0-4.71l.12-.05,4.14,2.22s8.88,4.8,9.26,5.02c.9,.48,1.61,.05,.73-1.33-1.04-1.67-2.15-2.6-3.48-3.61-1.77-1.37-4.14-2.12-6.62-4.46-2.42-2.28-3.54-4.11-4.21-6.05-.76-2.24-.24-4.71,1.41-5.29,1.4-.54,3.36,.25,4.5,1.24,2.7,2.36,4.19,5.58,4.93,8.94,.82,.55,4.1,1.49,4.05-1.5-.03-1.69-.96-3.07-1.94-4.57-1.83-2.62-4.14-5.01-6.77-6.72-1.45-.8-2.89-1.69-4.36-2.41v2.9l-1.75-1.01v-2.91l-5.66-3.22,.02-4.75s5.13,2.7,5.65,3c-.02-.69-.02-3.66-.02-3.66l1.77,.87v3.73l.76,.52s7.33,3.95,9.81,5.33c2.08,1.16,2.4,.31,2.04-.57-.48-1.16-2.02-2.58-2.52-3.08-1-.85-2-1.72-3.05-2.43-.01-.68,0-1.58,0-1.88,3.7,2.26,7.93,5.72,9.09,10.1,.19,1.17,.23,2.61-.69,3.45-.83,.8-2.23,.75-3.23,.36-.34-.14-.71-.3-.84-.37l-.07,.14c2.5,2.7,4.92,5.99,4.95,9.64,0,1.49-.65,3.18-2.08,3.91-1.43,.74-2.41,.57-2.78,.6h0Z"/>
        <path class="cls-9" d="M98.65,139.25c21.95,0,34.96-14.86,35.01-36,0-24.33-19.23-31.09-21.93-31.91,0,0,11.38,10.31,11.35,25.53,0,15.48-16.37,17.34-19.91,17.73,.04-9.2,.12-41.58-20.12-41.58-14.53-.03-21.81,15.24-21.81,28.77,0,23.87,15.74,37.43,37.41,37.46h0Zm25.6,163.35c0,17.46-12.08,29.9-41.95,29.9-29.91-.02-45.2-11.48-45.2-27.2,.03-19.52,22.42-28.64,27.15-30.6l-26.87,.02c-1.72,6.42-7.05,16.59-7.07,31.53-.03,30.7,23.19,53.15,53.42,53.17,30.02,.03,50.17-20.49,50.17-49.58,.02-20.1-9.93-31.21-16.11-36.2,9.82-6.5,15.64-17.97,15.66-32.03,0-26.8-16.93-40.51-36.63-40.51-19.63-.03-35.98,12.62-35.98,38.93-.02,19.75,11.29,39.39,36.44,39.42,4.63,0,8.93-.71,12.82-2.05h-.03c5.9,4.64,14.21,13.02,14.18,25.17h0Zm-27.91-46.84c-5.41,.03-30.05-.26-30.05-14.74,0-13.33,21.11-14.07,30.83-14.05,9.7,0,30.65,1.08,30.65,14.67s-22.66,14.15-31.44,14.12Zm-61-58.82v-22.27h57.96l-32.92-28.22v-13.41l27.51,23.8c9.29-5.51,31.6-18.75,43.38-25.91v22.7c-9.53,5.48-21.15,12.07-28.21,16.08l5.73,4.96h22.48v22.27H35.34Zm61.12-81.67c-23.06,.09-29.45-6.51-29.45-12.08-.09-8,8.95-11.14,15.51-11.12,13.28,0,13.48,15.6,13.94,23.2h0Z"/>
      </g>
    </g>
    <g id="g30">
      <path id="path28" class="cls-10" d="M154.6,16.44h30.07c-.97,6.2-5.98,39.31-5.98,62.41,0,78.78,26.52,112.33,32.25,138.63,8.7,39.91,10.52,71.33,2.05,111.01-8.95,41.88-15.73,57.35-18.75,63.95h-45.76c5-10.11,45.05-93.36,45.05-166.26,0-84.91-39.42-118.16-39.42-181.6,.1-9.38,.26-18.76,.49-28.14Z"/>
    </g>
    <rect class="cls-4" x="8.48" y="4.44" width="220" height="10"/>
    <polygon class="cls-4" points="223.48 409.44 13.48 409.44 3.48 396.44 3.48 394.44 233.48 394.44 233.48 397.44 223.48 409.44"/>
    <rect class="cls-3" x="13.48" y="409.44" width="210" height="8"/>
  </g>
  <path class="cls-2" d="M226.27,15.5h4.23V1.5H6.5V15.5h4.23L1.5,43.18V396.18l10,13v9.32H225.5v-9.28l10-12V43.18l-9.23-27.68Zm-4.77,395-206,0,207.06-4,8.94-11-225.48,0-.52-4"/>
</svg>