<?xml version="1.0" encoding="UTF-8"?>
<svg id="Layer_2" data-name="Layer 2" xmlns="http://www.w3.org/2000/svg" xmlns:xlink="http://www.w3.org/1999/xlink" viewBox="0 0 233.84 206.5">
  <defs>
    <style>
      .cls-1, .cls-2 {
        fill: none;
      }

      .cls-3 {
        clip-path: url(#clippath);
      }

      .cls-4 {
        fill: #e6e7e8;
      }

      .cls-4, .cls-5, .cls-2 {
        stroke: #231f20;
        stroke-miterlimit: 10;
        stroke-width: 4px;
      }

      .cls-5 {
        fill: #ccd0d5;
      }

      .cls-6 {
        clip-path: url(#clippath-1);
      }

      .cls-7 {
        fill: #db1f26;
      }

      .cls-7, .cls-8 {
        fill-rule: evenodd;
      }

      .cls-8 {
        fill: #fff;
      }
    </style>
    <clipPath id="clippath">
      <rect class="cls-1" width="233.84" height="206.5"/>
    </clipPath>
    <clipPath id="clippath-1">
      <rect class="cls-1" x="22.38" y="-139.6" width="109.96" height="288.09"/>
    </clipPath>
  </defs>
  <g id="Layer_1-2" data-name="Layer 1">
    <g class="cls-3">
      <polygon class="cls-5" points="1.92 -166.5 11.92 -196.5 221.92 -196.5 231.92 -166.5 231.92 -166.5 231.92 183.5 1.92 183.5 1.92 -166.5 1.92 -166.5"/>
      <g class="cls-6">
        <path class="cls-7" d="M97.09-71.69c21.95,0,34.96-14.86,35.01-36,0-24.33-19.23-31.09-21.93-31.91,0,0,11.38,10.31,11.35,25.53,0,15.48-16.37,17.34-19.91,17.73,.04-9.2,.12-41.58-20.12-41.58-14.53-.03-21.81,15.24-21.81,28.77,0,23.87,15.74,37.43,37.41,37.46h0Zm25.6,163.35c0,17.46-12.08,29.9-41.95,29.9-29.91-.02-45.2-11.48-45.2-27.2,.03-19.52,22.42-28.64,27.15-30.6l-26.87,.02c-1.72,6.42-7.05,16.59-7.07,31.53-.03,30.7,23.19,53.15,53.42,53.17,30.02,.03,50.17-20.49,50.17-49.58,.02-20.1-9.93-31.21-16.11-36.2,9.82-6.5,15.64-17.97,15.66-32.03,0-26.8-16.93-40.51-36.63-40.51-19.63-.03-35.98,12.62-35.98,38.93-.02,19.75,11.29,39.39,36.44,39.42,4.63,0,8.93-.71,12.82-2.05h-.03c5.9,4.64,14.21,13.02,14.18,25.17h0Zm-27.91-46.84c-5.41,.03-30.05-.26-30.05-14.74,0-13.33,21.11-14.07,30.83-14.05,9.7,0,30.65,1.08,30.65,14.67s-22.66,14.15-31.44,14.12ZM33.78-14.01v-22.27h57.96l-32.92-28.22v-13.41l27.51,23.8c9.29-5.51,31.6-18.75,43.38-25.91v22.7c-9.53,5.48-21.15,12.07-28.21,16.08l5.73,4.96h22.48V-14.01H33.78Zm61.12-81.67c-23.06,.09-29.45-6.51-29.45-12.08-.09-8,8.95-11.14,15.51-11.12,13.28,0,13.48,15.6,13.94,23.2h0Z"/>
      </g>
      <g id="g30">
        <path id="path28" class="cls-8" d="M153.04-194.5h30.07c-.97,6.2-5.98,39.31-5.98,62.41,0,78.78,26.52,112.33,32.25,138.63,8.7,39.91,10.52,71.33,2.05,111.01-8.95,41.88-15.73,57.35-18.75,63.95h-45.76c5-10.11,45.05-93.36,45.05-166.26,0-84.91-39.42-118.16-39.42-181.6,.1-9.38,.26-18.76,.49-28.14Z"/>
      </g>
      <polygon class="cls-4" points="221.92 198.5 11.92 198.5 1.92 185.5 1.92 183.5 231.92 183.5 231.92 186.5 221.92 198.5"/>
      <rect class="cls-2" x="11.92" y="198.5" width="210" height="8"/>
    </g>
  </g>
</svg>